<svg xmlns="http://www.w3.org/2000/svg" width="1200" height="630" viewBox="0 0 1200 630" role="img" aria-labelledby="title desc">
  <title id="title">pleasefindmethis.com exact match lens social preview</title>
  <desc id="desc">A microscope-style exact match lens rejects similar results and keeps a source lead locked before reveal.</desc>
  <defs>
    <linearGradient id="paper" x1="0" y1="0" x2="1" y2="1">
      <stop offset="0%" stop-color="#fffdf4"/>
      <stop offset="58%" stop-color="#f5efe0"/>
      <stop offset="100%" stop-color="#e9e0cb"/>
    </linearGradient>
    <linearGradient id="inkPanel" x1="0" y1="0" x2="1" y2="1">
      <stop offset="0%" stop-color="#0a1914"/>
      <stop offset="100%" stop-color="#112c24"/>
    </linearGradient>
    <linearGradient id="lensGlass" x1="0" y1="0" x2="1" y2="1">
      <stop offset="0%" stop-color="#f5fff9" stop-opacity="0.48"/>
      <stop offset="44%" stop-color="#72ffd2" stop-opacity="0.11"/>
      <stop offset="100%" stop-color="#06251d" stop-opacity="0.18"/>
    </linearGradient>
    <linearGradient id="lensRim" x1="0" y1="0" x2="1" y2="1">
      <stop offset="0%" stop-color="#07110e"/>
      <stop offset="55%" stop-color="#1e3d34"/>
      <stop offset="100%" stop-color="#070b0a"/>
    </linearGradient>
    <linearGradient id="tealStroke" x1="0" y1="0" x2="1" y2="0">
      <stop offset="0%" stop-color="#6fffd2"/>
      <stop offset="100%" stop-color="#15b66b"/>
    </linearGradient>
    <linearGradient id="amber" x1="0" y1="0" x2="1" y2="1">
      <stop offset="0%" stop-color="#ffe6a3"/>
      <stop offset="100%" stop-color="#d89b26"/>
    </linearGradient>
    <linearGradient id="redTag" x1="0" y1="0" x2="1" y2="1">
      <stop offset="0%" stop-color="#ffede8"/>
      <stop offset="100%" stop-color="#ffc7bc"/>
    </linearGradient>
    <filter id="deepShadow" x="-20%" y="-20%" width="140%" height="140%">
      <feDropShadow dx="0" dy="28" stdDeviation="24" flood-color="#11100c" flood-opacity="0.26"/>
    </filter>
    <filter id="smallShadow" x="-20%" y="-20%" width="140%" height="140%">
      <feDropShadow dx="0" dy="12" stdDeviation="12" flood-color="#11100c" flood-opacity="0.19"/>
    </filter>
    <filter id="greenGlow" x="-70%" y="-70%" width="240%" height="240%">
      <feGaussianBlur stdDeviation="7" result="blur"/>
      <feMerge>
        <feMergeNode in="blur"/>
        <feMergeNode in="SourceGraphic"/>
      </feMerge>
    </filter>
    <pattern id="grid" width="28" height="28" patternUnits="userSpaceOnUse">
      <path d="M28 0H0V28" fill="none" stroke="#16352c" stroke-opacity="0.07" stroke-width="1"/>
    </pattern>
    <pattern id="dots" width="18" height="18" patternUnits="userSpaceOnUse">
      <circle cx="2" cy="2" r="1.1" fill="#d0bd8c" opacity="0.35"/>
    </pattern>
    <clipPath id="refPhotoClip">
      <rect x="84" y="318" width="210" height="150" rx="22"/>
    </clipPath>
    <clipPath id="lensClip">
      <circle cx="798" cy="322" r="185"/>
    </clipPath>
    <clipPath id="smallPhotoA">
      <rect x="405" y="258" width="120" height="86" rx="18"/>
    </clipPath>
    <clipPath id="smallPhotoB">
      <rect x="375" y="381" width="130" height="94" rx="18"/>
    </clipPath>
    <clipPath id="smallPhotoC">
      <rect x="536" y="466" width="118" height="86" rx="18"/>
    </clipPath>
    <style>
      .sans { font-family: Inter, ui-sans-serif, -apple-system, BlinkMacSystemFont, "Segoe UI", Arial, sans-serif; }
      .mono { font-family: "SFMono-Regular", "Roboto Mono", Consolas, monospace; }
      .heavy { font-weight: 920; }
    </style>
  </defs>

  <rect width="1200" height="630" fill="url(#paper)"/>
  <rect width="1200" height="630" fill="url(#grid)"/>
  <rect width="1200" height="630" fill="url(#dots)" opacity="0.8"/>
  <path d="M0 0H466C410 106 382 212 384 330C386 438 417 535 476 630H0Z" fill="url(#inkPanel)"/>
  <path d="M451 0C401 111 377 219 381 330C385 436 418 536 482 630" fill="none" stroke="#64ffd0" stroke-opacity="0.22" stroke-width="3"/>

  <g class="sans">
    <g transform="translate(58 48)">
      <circle cx="20" cy="20" r="19" fill="#f8fff6"/>
      <circle cx="17" cy="17" r="8.5" fill="none" stroke="#0d6f42" stroke-width="4.2"/>
      <path d="M24 25L34 35" stroke="#0d6f42" stroke-width="5" stroke-linecap="round"/>
      <text x="50" y="27" font-size="24" font-weight="860" fill="#f8fff6">pleasefindmethis.com</text>
    </g>

    <text x="58" y="146" font-size="64" class="heavy" fill="#ffffff">Exact.</text>
    <text x="58" y="211" font-size="64" class="heavy" fill="#98ffd8">Not similar.</text>
    <text x="61" y="254" font-size="23" font-weight="680" fill="#d9efe5">Fund a clear request.</text>
    <text x="61" y="284" font-size="23" font-weight="680" fill="#d9efe5">Protected source leads.</text>

    <g filter="url(#smallShadow)">
      <rect x="72" y="304" width="238" height="202" rx="30" fill="#fffdf6" stroke="#ffffff" stroke-width="2"/>
      <image href="../../find-requests/seiko-wired-watch.jpg" x="84" y="318" width="210" height="150" preserveAspectRatio="xMidYMid slice" clip-path="url(#refPhotoClip)"/>
      <rect x="84" y="318" width="210" height="150" rx="22" fill="none" stroke="#0d1b17" stroke-opacity="0.12" stroke-width="2"/>
      <text x="96" y="485" font-size="16" font-weight="850" fill="#10221b">Reference</text>
      <rect x="214" y="472" width="68" height="23" rx="11.5" fill="#e8fff5" stroke="#1fbd78" stroke-opacity="0.3"/>
      <text x="229" y="488" font-size="12" font-weight="900" fill="#0c7642">ITEM</text>
    </g>

    <g transform="translate(70 536)">
      <rect width="246" height="46" rx="23" fill="#f8fff6" opacity="0.96"/>
      <path d="M31 25H54" stroke="#0c2d22" stroke-width="4" stroke-linecap="round"/>
      <path d="M46 16L57 25L46 34" fill="none" stroke="#0c2d22" stroke-width="4" stroke-linecap="round" stroke-linejoin="round"/>
      <text x="76" y="30" font-size="17" font-weight="820" fill="#0c2d22">Exact-item bounty</text>
    </g>
  </g>

  <g opacity="0.8">
    <path d="M520 132C608 91 697 77 792 93C905 111 982 166 1086 145" fill="none" stroke="#0a1914" stroke-opacity="0.1" stroke-width="2"/>
    <path d="M469 568C582 518 671 546 770 512C877 475 962 490 1112 436" fill="none" stroke="#0a1914" stroke-opacity="0.12" stroke-width="2"/>
  </g>

  <g class="sans" filter="url(#smallShadow)">
    <g transform="rotate(-8 465 301)">
      <rect x="405" y="258" width="120" height="86" rx="18" fill="#fffaf0" stroke="#ead8b2"/>
      <image href="../../find-requests/black-shoes.jpg" x="405" y="258" width="120" height="86" preserveAspectRatio="xMidYMid slice" clip-path="url(#smallPhotoA)" opacity="0.52"/>
      <rect x="411" y="267" width="82" height="23" rx="11.5" fill="url(#redTag)"/>
      <text x="426" y="284" font-size="12" font-weight="900" fill="#b93322">SIMILAR</text>
      <path d="M418 323L506 277" stroke="#b93322" stroke-width="5" stroke-linecap="round" opacity="0.68"/>
    </g>
    <g transform="rotate(6 440 428)">
      <rect x="375" y="381" width="130" height="94" rx="18" fill="#fffaf0" stroke="#ead8b2"/>
      <image href="../../find-requests/floral-skirt.jpg" x="375" y="381" width="130" height="94" preserveAspectRatio="xMidYMid slice" clip-path="url(#smallPhotoB)" opacity="0.46"/>
      <rect x="385" y="394" width="98" height="24" rx="12" fill="url(#redTag)"/>
      <text x="402" y="411" font-size="12" font-weight="900" fill="#b93322">LOOKALIKE</text>
      <path d="M389 455L489 398" stroke="#b93322" stroke-width="5" stroke-linecap="round" opacity="0.62"/>
    </g>
    <g transform="rotate(-11 595 509)">
      <rect x="536" y="466" width="118" height="86" rx="18" fill="#fffaf0" stroke="#ead8b2"/>
      <image href="../../find-requests/powerpuff-cup.jpg" x="536" y="466" width="118" height="86" preserveAspectRatio="xMidYMid slice" clip-path="url(#smallPhotoC)" opacity="0.48"/>
      <rect x="547" y="480" width="82" height="23" rx="11.5" fill="url(#redTag)"/>
      <text x="562" y="497" font-size="12" font-weight="900" fill="#b93322">SIMILAR</text>
      <path d="M548 536L640 484" stroke="#b93322" stroke-width="5" stroke-linecap="round" opacity="0.62"/>
    </g>
  </g>

  <g opacity="0.95">
    <path d="M544 301C611 302 654 314 690 323" fill="none" stroke="#d24a39" stroke-width="3" stroke-dasharray="8 11" stroke-linecap="round"/>
    <path d="M519 426C593 402 647 369 687 342" fill="none" stroke="#d24a39" stroke-width="3" stroke-dasharray="8 11" stroke-linecap="round"/>
    <path d="M654 509C690 464 705 413 711 369" fill="none" stroke="#d24a39" stroke-width="3" stroke-dasharray="8 11" stroke-linecap="round"/>
    <circle cx="690" cy="323" r="5" fill="#d24a39"/>
    <circle cx="687" cy="342" r="5" fill="#d24a39"/>
    <circle cx="711" cy="369" r="5" fill="#d24a39"/>
  </g>

  <g filter="url(#deepShadow)">
    <path d="M907 166C943 82 1030 54 1118 91C1138 99 1147 122 1138 142L1104 217C1096 236 1074 245 1055 237L938 188C913 178 900 184 907 166Z" fill="#14251f"/>
    <path d="M947 96C1001 71 1058 76 1114 104" fill="none" stroke="#6fffd2" stroke-opacity="0.32" stroke-width="8" stroke-linecap="round"/>
    <path d="M929 188L897 259" stroke="#14251f" stroke-width="52" stroke-linecap="round"/>
    <path d="M927 187L895 258" stroke="#6fffd2" stroke-opacity="0.28" stroke-width="10" stroke-linecap="round"/>
    <rect x="866" y="237" width="78" height="45" rx="15" transform="rotate(23 905 260)" fill="#f7fff7" stroke="#15251f" stroke-width="7"/>
  </g>

  <g filter="url(#deepShadow)">
    <path d="M925 461L1086 573" stroke="#07110e" stroke-width="58" stroke-linecap="round"/>
    <path d="M925 461L1086 573" stroke="#24483e" stroke-width="36" stroke-linecap="round"/>
    <path d="M953 480L1086 573" stroke="#79ffd7" stroke-opacity="0.3" stroke-width="8" stroke-linecap="round"/>
    <circle cx="798" cy="322" r="213" fill="url(#lensRim)"/>
    <circle cx="798" cy="322" r="191" fill="#f7fff7"/>
    <g clip-path="url(#lensClip)">
      <image href="../../find-requests/seiko-wired-watch.jpg" x="560" y="78" width="490" height="490" preserveAspectRatio="xMidYMid slice"/>
      <rect x="610" y="130" width="380" height="380" fill="url(#lensGlass)"/>
      <path d="M558 321H1038M798 82V562" stroke="#e9fff7" stroke-opacity="0.34" stroke-width="2"/>
      <circle cx="798" cy="322" r="64" fill="none" stroke="#e9fff7" stroke-opacity="0.36" stroke-width="2"/>
      <circle cx="798" cy="322" r="126" fill="none" stroke="#e9fff7" stroke-opacity="0.27" stroke-width="2"/>
      <path d="M692 395C728 425 770 438 820 434C872 430 913 405 943 365" fill="none" stroke="#68ffd0" stroke-width="7" stroke-linecap="round" opacity="0.82"/>
      <circle cx="795" cy="319" r="18" fill="#67ffd0" opacity="0.86" filter="url(#greenGlow)"/>
      <circle cx="795" cy="319" r="8" fill="#08251d"/>
    </g>
    <circle cx="798" cy="322" r="189" fill="none" stroke="#ffffff" stroke-opacity="0.58" stroke-width="5"/>
    <circle cx="798" cy="322" r="215" fill="none" stroke="url(#tealStroke)" stroke-width="5"/>
    <path d="M662 186C706 142 759 119 819 122" fill="none" stroke="#ffffff" stroke-opacity="0.32" stroke-width="11" stroke-linecap="round"/>
  </g>

  <g class="sans" filter="url(#smallShadow)">
    <rect x="640" y="84" width="254" height="58" rx="29" fill="#0b1714" stroke="#6fffd2" stroke-opacity="0.38"/>
    <circle cx="671" cy="113" r="8" fill="#69f5bd" filter="url(#greenGlow)"/>
    <text x="692" y="121" font-size="18" font-weight="890" fill="#ebfff7">Exact match lens</text>
  </g>

  <g class="sans" filter="url(#smallShadow)">
    <rect x="617" y="500" width="430" height="78" rx="24" fill="#fffdf6" stroke="#ffffff" stroke-width="2"/>
    <g transform="translate(643 522)">
      <path d="M12 18V11C12 2 30 2 30 11V18" fill="none" stroke="#0d2c22" stroke-width="5" stroke-linecap="round"/>
      <rect x="7" y="17" width="28" height="23" rx="7" fill="#0d2c22"/>
      <circle cx="21" cy="29" r="3.2" fill="#78ffd5"/>
    </g>
    <text x="691" y="537" font-size="16" font-weight="900" fill="#107248">PROTECTED SOURCE</text>
    <text x="691" y="561" font-size="20" font-weight="850" fill="#13231d">Recorded before reveal</text>
    <rect x="914" y="522" width="93" height="37" rx="18.5" fill="#e9fff5" stroke="#20b974" stroke-opacity="0.32"/>
    <text x="933" y="546" font-size="14" font-weight="900" fill="#107248">REVIEW</text>
  </g>

  <g class="sans">
    <rect x="1016" y="54" width="120" height="44" rx="22" fill="#0b1714"/>
    <text x="1043" y="82" font-size="16" font-weight="880" fill="#f8fff6">SOURCE</text>
    <path d="M1018 121H1135" stroke="#0b1714" stroke-opacity="0.28" stroke-width="3" stroke-linecap="round"/>
    <path d="M1029 142H1118" stroke="#0b1714" stroke-opacity="0.18" stroke-width="3" stroke-linecap="round"/>
  </g>
</svg>
