<svg xmlns="http://www.w3.org/2000/svg" width="1200" height="630" viewBox="0 0 1200 630">
  <title>Search stops. People keep looking.</title>
  <defs>
    <filter id="cardShadow" x="-10%" y="-12%" width="120%" height="130%">
      <feDropShadow dx="0" dy="30" stdDeviation="28" flood-color="#000000" flood-opacity="0.42"/>
    </filter>
    <filter id="nodeShadow" x="-25%" y="-25%" width="150%" height="150%">
      <feDropShadow dx="0" dy="10" stdDeviation="9" flood-color="#000000" flood-opacity="0.16"/>
    </filter>
    <filter id="greenGlow" x="-45%" y="-45%" width="190%" height="190%">
      <feDropShadow dx="0" dy="0" stdDeviation="9" flood-color="#23d579" flood-opacity="0.52"/>
      <feDropShadow dx="0" dy="12" stdDeviation="10" flood-color="#000000" flood-opacity="0.16"/>
    </filter>
    <filter id="redGlow" x="-30%" y="-30%" width="160%" height="160%">
      <feDropShadow dx="0" dy="0" stdDeviation="8" flood-color="#ef2f2b" flood-opacity="0.36"/>
    </filter>
    <linearGradient id="panelGradient" x1="0" y1="0" x2="1" y2="1">
      <stop offset="0%" stop-color="#f7f5ef"/>
      <stop offset="100%" stop-color="#e9fff3"/>
    </linearGradient>
    <radialGradient id="networkGlow" cx="70%" cy="52%" r="52%">
      <stop offset="0%" stop-color="#24e57f" stop-opacity="0.24"/>
      <stop offset="100%" stop-color="#24e57f" stop-opacity="0"/>
    </radialGradient>
    <style>
      .sans { font-family: Inter, -apple-system, BlinkMacSystemFont, "Segoe UI", Arial, sans-serif; }
      text { dominant-baseline: alphabetic; }
    </style>
  </defs>

  <rect width="1200" height="630" fill="#14162f"/>
  <path d="M0 500C180 430 330 580 520 512C735 435 790 210 1005 240C1104 254 1162 319 1200 370V630H0Z" fill="#192344"/>
  <circle cx="146" cy="104" r="170" fill="#ef2f2b" opacity="0.14"/>
  <circle cx="1034" cy="384" r="220" fill="#23d579" opacity="0.12"/>

  <g class="sans">
    <rect x="48" y="38" width="1104" height="554" rx="34" fill="url(#panelGradient)" filter="url(#cardShadow)"/>
    <rect x="48" y="38" width="1104" height="554" rx="34" fill="url(#networkGlow)"/>
    <g transform="translate(74 72)">
    <circle cx="17" cy="17" r="17" fill="#096b3a"/>
    <circle cx="15" cy="15" r="8" fill="none" stroke="#ffffff" stroke-width="4"/>
    <path d="M22 23L31 32" stroke="#ffffff" stroke-width="5" stroke-linecap="round"/>
    <text x="46" y="25" font-size="25" font-weight="900" fill="#101214">pleasefindmethis.com</text>
  </g>

    <rect x="875" y="67" width="230" height="40" rx="20" fill="#ffffff"/>
    <text x="990" y="93" text-anchor="middle" font-size="14" font-weight="900" letter-spacing="1.2" fill="#101214">FUNDED REQUEST</text>

    <text x="76" y="164" font-size="65" font-weight="960" fill="#ef2f2b">Search stops.</text>
    <text x="76" y="226" font-size="62" font-weight="960" fill="#101214">People keep looking.</text>
    <text x="78" y="265" font-size="23" font-weight="780" fill="#5e625f">For sold-out, discontinued, and hidden-inventory items.</text>

    <g transform="translate(77 304)">
      <rect width="426" height="212" rx="28" fill="#fffdf7" stroke="#f1ddd8" stroke-width="2"/>
      <text x="26" y="40" font-size="15" font-weight="960" letter-spacing="2" fill="#ef2f2b">WHEN NORMAL SEARCH FAILS</text>
      <g transform="translate(25 62)">
    <rect width="188" height="72" rx="18" fill="#ffffff" stroke="#f0dad2" stroke-width="2"/>
    <text x="18" y="31" font-size="22" font-weight="930" fill="#101214">Search</text>
    <text x="18" y="55" font-size="15" font-weight="850" fill="#ef2f2b">wrong item</text>
    <g transform="translate(150 14)">
      <circle cx="22" cy="22" r="21" fill="#fff4f2" stroke="#ef2f2b" stroke-width="4"/>
      <path d="M14 14L30 30M30 14L14 30" stroke="#ef2f2b" stroke-width="5" stroke-linecap="round"/>
    </g>
  </g>
      <g transform="translate(222 62)">
    <rect width="188" height="72" rx="18" fill="#ffffff" stroke="#f0dad2" stroke-width="2"/>
    <text x="18" y="31" font-size="22" font-weight="930" fill="#101214">Stores</text>
    <text x="18" y="55" font-size="15" font-weight="850" fill="#ef2f2b">out of stock</text>
    <g transform="translate(150 14)">
      <circle cx="22" cy="22" r="21" fill="#fff4f2" stroke="#ef2f2b" stroke-width="4"/>
      <path d="M14 14L30 30M30 14L14 30" stroke="#ef2f2b" stroke-width="5" stroke-linecap="round"/>
    </g>
  </g>
      <g transform="translate(25 143)">
    <rect width="188" height="72" rx="18" fill="#ffffff" stroke="#f0dad2" stroke-width="2"/>
    <text x="18" y="31" font-size="22" font-weight="930" fill="#101214">Markets</text>
    <text x="18" y="55" font-size="15" font-weight="850" fill="#ef2f2b">dead link</text>
    <g transform="translate(150 14)">
      <circle cx="22" cy="22" r="21" fill="#fff4f2" stroke="#ef2f2b" stroke-width="4"/>
      <path d="M14 14L30 30M30 14L14 30" stroke="#ef2f2b" stroke-width="5" stroke-linecap="round"/>
    </g>
  </g>
      <g transform="translate(222 143)">
    <rect width="188" height="72" rx="18" fill="#ffffff" stroke="#f0dad2" stroke-width="2"/>
    <text x="18" y="31" font-size="22" font-weight="930" fill="#101214">Alerts</text>
    <text x="18" y="55" font-size="15" font-weight="850" fill="#ef2f2b">no exact hit</text>
    <g transform="translate(150 14)">
      <circle cx="22" cy="22" r="21" fill="#fff4f2" stroke="#ef2f2b" stroke-width="4"/>
      <path d="M14 14L30 30M30 14L14 30" stroke="#ef2f2b" stroke-width="5" stroke-linecap="round"/>
    </g>
  </g>
    </g>

    <g transform="translate(535 304)">
      <rect width="582" height="212" rx="28" fill="#f2fff8" stroke="#cceede" stroke-width="2"/>
      <text x="26" y="40" font-size="15" font-weight="960" letter-spacing="2" fill="#096b3a">HUMAN FINDER NETWORK</text>
      <path d="M154 109C188 58 222 54 268 70" fill="none" stroke="#23d579" stroke-width="6" stroke-linecap="round" stroke-linejoin="round" opacity="0.92"/>
      <path d="M154 109C202 108 230 108 268 108" fill="none" stroke="#23d579" stroke-width="6" stroke-linecap="round" stroke-linejoin="round" opacity="0.92"/>
      <path d="M154 109C188 158 222 162 268 150" fill="none" stroke="#23d579" stroke-width="6" stroke-linecap="round" stroke-linejoin="round" opacity="0.92"/>
      <path d="M394 70C413 78 421 88 426 103" fill="none" stroke="#23d579" stroke-width="6" stroke-linecap="round" stroke-linejoin="round" opacity="0.92"/>
      <path d="M394 108C410 108 418 108 426 108" fill="none" stroke="#23d579" stroke-width="6" stroke-linecap="round" stroke-linejoin="round" opacity="0.92"/>
      <path d="M394 150C413 140 421 128 426 113" fill="none" stroke="#23d579" stroke-width="6" stroke-linecap="round" stroke-linejoin="round" opacity="0.92"/>
      <path d="M154 109C226 104 325 104 426 108" fill="none" stroke="#23d579" stroke-width="4" stroke-linecap="round" stroke-linejoin="round" opacity="0.56" stroke-dasharray="12 12"/>
      <path d="M-15 188C22 142 42 127 65 115" fill="none" stroke="#ff3f38" stroke-width="5" stroke-linecap="round" stroke-linejoin="round" opacity="0.85" stroke-dasharray="10 12"/>
      <g transform="translate(25 82)" filter="url(#greenGlow)">
    <rect width="144" height="54" rx="27" fill="#f1fff8" stroke="#23d579" stroke-width="3"/>
    <text x="72" y="35" text-anchor="middle" font-size="19" font-weight="900" fill="#096b3a">Finder</text>
  </g>
      <g transform="translate(268 48)" filter="url(#nodeShadow)">
    <rect width="126" height="44" rx="22" fill="#ffffff" stroke="#dce6de" stroke-width="2"/>
    <text x="63" y="29" text-anchor="middle" font-size="15" font-weight="900" fill="#101214">Collector</text>
  </g>
      <g transform="translate(268 86)" filter="url(#nodeShadow)">
    <rect width="126" height="44" rx="22" fill="#ffffff" stroke="#dce6de" stroke-width="2"/>
    <text x="63" y="29" text-anchor="middle" font-size="15" font-weight="900" fill="#101214">Warehouse</text>
  </g>
      <g transform="translate(268 130)" filter="url(#nodeShadow)">
    <rect width="126" height="44" rx="22" fill="#ffffff" stroke="#dce6de" stroke-width="2"/>
    <text x="63" y="29" text-anchor="middle" font-size="15" font-weight="900" fill="#101214">Local shop</text>
  </g>

      <g transform="translate(426 64)" filter="url(#greenGlow)">
        <rect width="136" height="104" rx="24" fill="#effff7" stroke="#23d579" stroke-width="3"/>
        <text x="68" y="32" text-anchor="middle" font-size="14" font-weight="950" letter-spacing="1.2" fill="#096b3a">SOURCE LEAD</text>
        <rect x="17" y="45" width="102" height="30" rx="15" fill="#ffffff" stroke="#cbeade" stroke-width="2"/>
        <text x="68" y="65" text-anchor="middle" font-size="14" font-weight="920" fill="#101214">hidden</text>
        <text x="68" y="91" text-anchor="middle" font-size="13" font-weight="900" fill="#096b3a">payout path</text>
      </g>
    </g>

    <rect x="82" y="544" width="1036" height="34" rx="17" fill="#101214"/>
    <text x="103" y="567" font-size="16" font-weight="850" fill="#ffffff">Post the item. Fund the request. Let finders submit protected source leads.</text>
  </g>
</svg>